<svg width="599" height="472" viewBox="0 0 599 472" fill="none" xmlns="http://www.w3.org/2000/svg">
<g filter="url(#filter0_d_22020_90508)">
<rect x="12" y="8" width="575" height="448" fill="#0E1223"/>
<rect x="12.5" y="8.5" width="574" height="447" stroke="#384162"/>
<path d="M47.108 82.2898H44.983C44.9223 81.9413 44.8106 81.6326 44.6477 81.3636C44.4848 81.0909 44.2822 80.8598 44.0398 80.6705C43.7973 80.4811 43.5208 80.339 43.2102 80.2443C42.9034 80.1458 42.572 80.0966 42.2159 80.0966C41.5833 80.0966 41.0227 80.2557 40.5341 80.5739C40.0455 80.8883 39.6629 81.3504 39.3864 81.9602C39.1098 82.5663 38.9716 83.3068 38.9716 84.1818C38.9716 85.072 39.1098 85.822 39.3864 86.4318C39.6667 87.0379 40.0492 87.4962 40.5341 87.8068C41.0227 88.1136 41.5814 88.267 42.2102 88.267C42.5587 88.267 42.8845 88.2216 43.1875 88.1307C43.4943 88.036 43.7689 87.8977 44.0114 87.7159C44.2576 87.5341 44.464 87.3106 44.6307 87.0455C44.8011 86.7803 44.9186 86.4773 44.983 86.1364L47.108 86.1477C47.0284 86.7008 46.8561 87.2197 46.5909 87.7045C46.3295 88.1894 45.9867 88.6174 45.5625 88.9886C45.1383 89.3561 44.642 89.6439 44.0739 89.8523C43.5057 90.0568 42.875 90.1591 42.1818 90.1591C41.1591 90.1591 40.2462 89.9223 39.4432 89.4489C38.6402 88.9754 38.0076 88.2917 37.5455 87.3977C37.0833 86.5038 36.8523 85.4318 36.8523 84.1818C36.8523 82.928 37.0852 81.8561 37.5511 80.9659C38.017 80.072 38.6515 79.3883 39.4545 78.9148C40.2576 78.4413 41.1667 78.2045 42.1818 78.2045C42.8295 78.2045 43.4318 78.2955 43.9886 78.4773C44.5455 78.6591 45.0417 78.9261 45.4773 79.2784C45.9129 79.6269 46.2708 80.0549 46.5511 80.5625C46.8352 81.0663 47.0208 81.642 47.108 82.2898ZM52.7543 90.1705C51.902 90.1705 51.1634 89.983 50.5384 89.608C49.9134 89.233 49.4285 88.7083 49.0838 88.0341C48.7429 87.3598 48.5724 86.572 48.5724 85.6705C48.5724 84.7689 48.7429 83.9792 49.0838 83.3011C49.4285 82.6231 49.9134 82.0966 50.5384 81.7216C51.1634 81.3466 51.902 81.1591 52.7543 81.1591C53.6065 81.1591 54.3452 81.3466 54.9702 81.7216C55.5952 82.0966 56.0781 82.6231 56.419 83.3011C56.7637 83.9792 56.9361 84.7689 56.9361 85.6705C56.9361 86.572 56.7637 87.3598 56.419 88.0341C56.0781 88.7083 55.5952 89.233 54.9702 89.608C54.3452 89.983 53.6065 90.1705 52.7543 90.1705ZM52.7656 88.5227C53.2277 88.5227 53.6141 88.3958 53.9247 88.142C54.2353 87.8845 54.4664 87.5398 54.6179 87.108C54.7732 86.6761 54.8509 86.1951 54.8509 85.6648C54.8509 85.1307 54.7732 84.6477 54.6179 84.2159C54.4664 83.7803 54.2353 83.4337 53.9247 83.1761C53.6141 82.9186 53.2277 82.7898 52.7656 82.7898C52.2921 82.7898 51.8982 82.9186 51.5838 83.1761C51.2732 83.4337 51.0402 83.7803 50.8849 84.2159C50.7334 84.6477 50.6577 85.1307 50.6577 85.6648C50.6577 86.1951 50.7334 86.6761 50.8849 87.108C51.0402 87.5398 51.2732 87.8845 51.5838 88.142C51.8982 88.3958 52.2921 88.5227 52.7656 88.5227ZM60.7386 78.3636V90H58.6818V78.3636H60.7386ZM71.5327 78.3636V90H69.4247V80.4148H69.3565L66.6349 82.1534V80.2216L69.527 78.3636H71.5327Z" fill="#8791B7"/>
<path d="M457.405 82.2898H455.28C455.219 81.9413 455.107 81.6326 454.945 81.3636C454.782 81.0909 454.579 80.8598 454.337 80.6705C454.094 80.4811 453.818 80.339 453.507 80.2443C453.2 80.1458 452.869 80.0966 452.513 80.0966C451.88 80.0966 451.32 80.2557 450.831 80.5739C450.342 80.8883 449.96 81.3504 449.683 81.9602C449.407 82.5663 449.268 83.3068 449.268 84.1818C449.268 85.072 449.407 85.822 449.683 86.4318C449.964 87.0379 450.346 87.4962 450.831 87.8068C451.32 88.1136 451.878 88.267 452.507 88.267C452.856 88.267 453.181 88.2216 453.484 88.1307C453.791 88.036 454.066 87.8977 454.308 87.7159C454.554 87.5341 454.761 87.3106 454.928 87.0455C455.098 86.7803 455.215 86.4773 455.28 86.1364L457.405 86.1477C457.325 86.7008 457.153 87.2197 456.888 87.7045C456.626 88.1894 456.284 88.6174 455.859 88.9886C455.435 89.3561 454.939 89.6439 454.371 89.8523C453.803 90.0568 453.172 90.1591 452.479 90.1591C451.456 90.1591 450.543 89.9223 449.74 89.4489C448.937 88.9754 448.304 88.2917 447.842 87.3977C447.38 86.5038 447.149 85.4318 447.149 84.1818C447.149 82.928 447.382 81.8561 447.848 80.9659C448.314 80.072 448.948 79.3883 449.751 78.9148C450.554 78.4413 451.464 78.2045 452.479 78.2045C453.126 78.2045 453.729 78.2955 454.286 78.4773C454.842 78.6591 455.339 78.9261 455.774 79.2784C456.21 79.6269 456.568 80.0549 456.848 80.5625C457.132 81.0663 457.318 81.642 457.405 82.2898ZM463.051 90.1705C462.199 90.1705 461.46 89.983 460.835 89.608C460.21 89.233 459.725 88.7083 459.381 88.0341C459.04 87.3598 458.869 86.572 458.869 85.6705C458.869 84.7689 459.04 83.9792 459.381 83.3011C459.725 82.6231 460.21 82.0966 460.835 81.7216C461.46 81.3466 462.199 81.1591 463.051 81.1591C463.903 81.1591 464.642 81.3466 465.267 81.7216C465.892 82.0966 466.375 82.6231 466.716 83.3011C467.061 83.9792 467.233 84.7689 467.233 85.6705C467.233 86.572 467.061 87.3598 466.716 88.0341C466.375 88.7083 465.892 89.233 465.267 89.608C464.642 89.983 463.903 90.1705 463.051 90.1705ZM463.062 88.5227C463.525 88.5227 463.911 88.3958 464.222 88.142C464.532 87.8845 464.763 87.5398 464.915 87.108C465.07 86.6761 465.148 86.1951 465.148 85.6648C465.148 85.1307 465.07 84.6477 464.915 84.2159C464.763 83.7803 464.532 83.4337 464.222 83.1761C463.911 82.9186 463.525 82.7898 463.062 82.7898C462.589 82.7898 462.195 82.9186 461.881 83.1761C461.57 83.4337 461.337 83.7803 461.182 84.2159C461.03 84.6477 460.955 85.1307 460.955 85.6648C460.955 86.1951 461.03 86.6761 461.182 87.108C461.337 87.5398 461.57 87.8845 461.881 88.142C462.195 88.3958 462.589 88.5227 463.062 88.5227ZM471.036 78.3636V90H468.979V78.3636H471.036ZM477.097 90V88.4773L481.136 84.517C481.523 84.1269 481.845 83.7803 482.102 83.4773C482.36 83.1742 482.553 82.8807 482.682 82.5966C482.811 82.3125 482.875 82.0095 482.875 81.6875C482.875 81.3201 482.792 81.0057 482.625 80.7443C482.458 80.4792 482.229 80.2746 481.938 80.1307C481.646 79.9867 481.314 79.9148 480.943 79.9148C480.561 79.9148 480.225 79.9943 479.938 80.1534C479.65 80.3087 479.426 80.5303 479.267 80.8182C479.112 81.1061 479.034 81.4489 479.034 81.8466H477.028C477.028 81.108 477.197 80.4659 477.534 79.9205C477.871 79.375 478.335 78.9527 478.926 78.6534C479.521 78.3542 480.203 78.2045 480.972 78.2045C481.752 78.2045 482.438 78.3504 483.028 78.642C483.619 78.9337 484.078 79.3333 484.403 79.8409C484.733 80.3485 484.898 80.928 484.898 81.5795C484.898 82.0152 484.814 82.4432 484.648 82.8636C484.481 83.2841 484.188 83.75 483.767 84.2614C483.35 84.7727 482.765 85.392 482.011 86.1193L480.006 88.1591V88.2386H485.074V90H477.097Z" fill="#8791B7"/>
<path d="M533.92 82.2898H531.795C531.735 81.9413 531.623 81.6326 531.46 81.3636C531.297 81.0909 531.095 80.8598 530.852 80.6705C530.61 80.4811 530.333 80.339 530.023 80.2443C529.716 80.1458 529.384 80.0966 529.028 80.0966C528.396 80.0966 527.835 80.2557 527.347 80.5739C526.858 80.8883 526.475 81.3504 526.199 81.9602C525.922 82.5663 525.784 83.3068 525.784 84.1818C525.784 85.072 525.922 85.822 526.199 86.4318C526.479 87.0379 526.862 87.4962 527.347 87.8068C527.835 88.1136 528.394 88.267 529.023 88.267C529.371 88.267 529.697 88.2216 530 88.1307C530.307 88.036 530.581 87.8977 530.824 87.7159C531.07 87.5341 531.277 87.3106 531.443 87.0455C531.614 86.7803 531.731 86.4773 531.795 86.1364L533.92 86.1477C533.841 86.7008 533.669 87.2197 533.403 87.7045C533.142 88.1894 532.799 88.6174 532.375 88.9886C531.951 89.3561 531.455 89.6439 530.886 89.8523C530.318 90.0568 529.688 90.1591 528.994 90.1591C527.972 90.1591 527.059 89.9223 526.256 89.4489C525.453 88.9754 524.82 88.2917 524.358 87.3977C523.896 86.5038 523.665 85.4318 523.665 84.1818C523.665 82.928 523.898 81.8561 524.364 80.9659C524.83 80.072 525.464 79.3883 526.267 78.9148C527.07 78.4413 527.979 78.2045 528.994 78.2045C529.642 78.2045 530.244 78.2955 530.801 78.4773C531.358 78.6591 531.854 78.9261 532.29 79.2784C532.725 79.6269 533.083 80.0549 533.364 80.5625C533.648 81.0663 533.833 81.642 533.92 82.2898ZM539.567 90.1705C538.714 90.1705 537.976 89.983 537.351 89.608C536.726 89.233 536.241 88.7083 535.896 88.0341C535.555 87.3598 535.385 86.572 535.385 85.6705C535.385 84.7689 535.555 83.9792 535.896 83.3011C536.241 82.6231 536.726 82.0966 537.351 81.7216C537.976 81.3466 538.714 81.1591 539.567 81.1591C540.419 81.1591 541.158 81.3466 541.783 81.7216C542.408 82.0966 542.891 82.6231 543.232 83.3011C543.576 83.9792 543.749 84.7689 543.749 85.6705C543.749 86.572 543.576 87.3598 543.232 88.0341C542.891 88.7083 542.408 89.233 541.783 89.608C541.158 89.983 540.419 90.1705 539.567 90.1705ZM539.578 88.5227C540.04 88.5227 540.427 88.3958 540.737 88.142C541.048 87.8845 541.279 87.5398 541.43 87.108C541.586 86.6761 541.663 86.1951 541.663 85.6648C541.663 85.1307 541.586 84.6477 541.43 84.2159C541.279 83.7803 541.048 83.4337 540.737 83.1761C540.427 82.9186 540.04 82.7898 539.578 82.7898C539.105 82.7898 538.711 82.9186 538.396 83.1761C538.086 83.4337 537.853 83.7803 537.697 84.2159C537.546 84.6477 537.47 85.1307 537.47 85.6648C537.47 86.1951 537.546 86.6761 537.697 87.108C537.853 87.5398 538.086 87.8845 538.396 88.142C538.711 88.3958 539.105 88.5227 539.578 88.5227ZM547.551 78.3636V90H545.494V78.3636H547.551ZM557.788 90.1591C556.97 90.1591 556.243 90.0189 555.607 89.7386C554.974 89.4583 554.474 89.0682 554.107 88.5682C553.739 88.0682 553.544 87.4905 553.521 86.8352H555.658C555.677 87.1496 555.781 87.4242 555.97 87.6591C556.16 87.8902 556.411 88.0701 556.726 88.1989C557.04 88.3277 557.393 88.392 557.783 88.392C558.199 88.392 558.569 88.3201 558.891 88.1761C559.213 88.0284 559.464 87.8239 559.646 87.5625C559.828 87.3011 559.917 87 559.913 86.6591C559.917 86.3068 559.826 85.9962 559.641 85.7273C559.455 85.4583 559.186 85.2481 558.834 85.0966C558.485 84.9451 558.065 84.8693 557.572 84.8693H556.544V83.2443H557.572C557.978 83.2443 558.332 83.1742 558.635 83.0341C558.942 82.8939 559.182 82.697 559.357 82.4432C559.531 82.1856 559.616 81.8883 559.612 81.5511C559.616 81.2216 559.542 80.9356 559.391 80.6932C559.243 80.447 559.033 80.2557 558.76 80.1193C558.491 79.983 558.175 79.9148 557.811 79.9148C557.455 79.9148 557.125 79.9792 556.822 80.108C556.519 80.2367 556.275 80.4205 556.089 80.6591C555.904 80.8939 555.805 81.1742 555.794 81.5H553.766C553.781 80.8485 553.968 80.2765 554.328 79.7841C554.692 79.2879 555.177 78.9015 555.783 78.625C556.389 78.3447 557.069 78.2045 557.822 78.2045C558.599 78.2045 559.273 78.3504 559.845 78.642C560.421 78.9299 560.866 79.3182 561.18 79.8068C561.495 80.2955 561.652 80.8352 561.652 81.4261C561.656 82.0814 561.463 82.6307 561.072 83.0739C560.686 83.517 560.179 83.8068 559.55 83.9432V84.0341C560.368 84.1477 560.995 84.4508 561.43 84.9432C561.87 85.4318 562.088 86.0398 562.084 86.767C562.084 87.4186 561.898 88.0019 561.527 88.517C561.16 89.0284 560.652 89.4299 560.004 89.7216C559.36 90.0133 558.622 90.1591 557.788 90.1591Z" fill="#8791B7"/>
<mask id="path-6-inside-1_22020_90508" fill="white">
<path d="M36 100H563V148H36V100Z"/>
</mask>
<path d="M36 101H563V99H36V101Z" fill="#384162" mask="url(#path-6-inside-1_22020_90508)"/>
<path d="M37.2784 130V118.364H41.4261C42.3277 118.364 43.0758 118.519 43.6705 118.83C44.2689 119.14 44.7159 119.57 45.0114 120.119C45.3068 120.665 45.4545 121.295 45.4545 122.011C45.4545 122.723 45.3049 123.35 45.0057 123.892C44.7102 124.43 44.2633 124.848 43.6648 125.148C43.0701 125.447 42.322 125.597 41.4205 125.597H38.2784V124.085H41.2614C41.8295 124.085 42.2917 124.004 42.6477 123.841C43.0076 123.678 43.2708 123.441 43.4375 123.131C43.6042 122.82 43.6875 122.447 43.6875 122.011C43.6875 121.572 43.6023 121.191 43.4318 120.869C43.2652 120.547 43.0019 120.301 42.642 120.131C42.286 119.956 41.8182 119.869 41.2386 119.869H39.0341V130H37.2784ZM43.0227 124.75L45.8977 130H43.8977L41.0795 124.75H43.0227ZM51.0213 130.176C50.2031 130.176 49.4891 129.989 48.8793 129.614C48.2694 129.239 47.7959 128.714 47.4588 128.04C47.1217 127.366 46.9531 126.578 46.9531 125.676C46.9531 124.771 47.1217 123.979 47.4588 123.301C47.7959 122.623 48.2694 122.097 48.8793 121.722C49.4891 121.347 50.2031 121.159 51.0213 121.159C51.8395 121.159 52.5535 121.347 53.1634 121.722C53.7732 122.097 54.2467 122.623 54.5838 123.301C54.9209 123.979 55.0895 124.771 55.0895 125.676C55.0895 126.578 54.9209 127.366 54.5838 128.04C54.2467 128.714 53.7732 129.239 53.1634 129.614C52.5535 129.989 51.8395 130.176 51.0213 130.176ZM51.027 128.75C51.5573 128.75 51.9967 128.61 52.3452 128.33C52.6937 128.049 52.9512 127.676 53.1179 127.21C53.2884 126.744 53.3736 126.231 53.3736 125.67C53.3736 125.114 53.2884 124.602 53.1179 124.136C52.9512 123.667 52.6937 123.29 52.3452 123.006C51.9967 122.722 51.5573 122.58 51.027 122.58C50.4929 122.58 50.0497 122.722 49.6974 123.006C49.349 123.29 49.0895 123.667 48.919 124.136C48.7524 124.602 48.669 125.114 48.669 125.67C48.669 126.231 48.7524 126.744 48.919 127.21C49.0895 127.676 49.349 128.049 49.6974 128.33C50.0497 128.61 50.4929 128.75 51.027 128.75ZM58.6122 130L56.044 121.273H57.7997L59.5099 127.682H59.5952L61.3111 121.273H63.0668L64.7713 127.653H64.8565L66.5554 121.273H68.3111L65.7486 130H64.0156L62.2429 123.699H62.1122L60.3395 130H58.6122ZM78.5497 118.364V130H76.7884V120.125H76.7202L73.9361 121.943V120.261L76.8395 118.364H78.5497Z" fill="white"/>
<path d="M463.983 118.364V130H462.574V119.841H462.506L459.665 121.727V120.295L462.574 118.364H463.983ZM467.33 130V128.977L471.17 124.773C471.621 124.28 471.992 123.852 472.284 123.489C472.576 123.121 472.792 122.777 472.932 122.455C473.076 122.129 473.148 121.788 473.148 121.432C473.148 121.023 473.049 120.669 472.852 120.369C472.659 120.07 472.394 119.839 472.057 119.676C471.72 119.513 471.341 119.432 470.92 119.432C470.473 119.432 470.083 119.525 469.75 119.71C469.42 119.892 469.165 120.148 468.983 120.477C468.805 120.807 468.716 121.193 468.716 121.636H467.375C467.375 120.955 467.532 120.356 467.847 119.841C468.161 119.326 468.589 118.924 469.131 118.636C469.676 118.348 470.288 118.205 470.966 118.205C471.648 118.205 472.252 118.348 472.778 118.636C473.305 118.924 473.718 119.312 474.017 119.801C474.316 120.29 474.466 120.833 474.466 121.432C474.466 121.86 474.388 122.278 474.233 122.688C474.081 123.093 473.816 123.545 473.438 124.045C473.062 124.542 472.542 125.148 471.875 125.864L469.261 128.659V128.75H474.67V130H467.33ZM480.949 130.159C480.199 130.159 479.53 130.03 478.943 129.773C478.36 129.515 477.896 129.157 477.551 128.699C477.21 128.237 477.025 127.701 476.994 127.091H478.426C478.456 127.466 478.585 127.79 478.812 128.062C479.04 128.331 479.337 128.54 479.705 128.688C480.072 128.835 480.479 128.909 480.926 128.909C481.426 128.909 481.869 128.822 482.256 128.648C482.642 128.473 482.945 128.231 483.165 127.92C483.384 127.61 483.494 127.25 483.494 126.841C483.494 126.413 483.388 126.036 483.176 125.71C482.964 125.381 482.653 125.123 482.244 124.938C481.835 124.752 481.335 124.659 480.744 124.659H479.812V123.409H480.744C481.206 123.409 481.612 123.326 481.96 123.159C482.313 122.992 482.587 122.758 482.784 122.455C482.985 122.152 483.085 121.795 483.085 121.386C483.085 120.992 482.998 120.65 482.824 120.358C482.65 120.066 482.403 119.839 482.085 119.676C481.771 119.513 481.4 119.432 480.972 119.432C480.57 119.432 480.191 119.506 479.835 119.653C479.483 119.797 479.195 120.008 478.972 120.284C478.748 120.557 478.627 120.886 478.608 121.273H477.244C477.267 120.663 477.451 120.129 477.795 119.67C478.14 119.208 478.591 118.848 479.148 118.591C479.708 118.333 480.324 118.205 480.994 118.205C481.714 118.205 482.331 118.35 482.847 118.642C483.362 118.93 483.758 119.311 484.034 119.784C484.311 120.258 484.449 120.769 484.449 121.318C484.449 121.973 484.277 122.532 483.932 122.994C483.591 123.456 483.127 123.777 482.54 123.955V124.045C483.275 124.167 483.848 124.479 484.261 124.983C484.674 125.483 484.881 126.102 484.881 126.841C484.881 127.473 484.708 128.042 484.364 128.545C484.023 129.045 483.557 129.439 482.966 129.727C482.375 130.015 481.703 130.159 480.949 130.159Z" fill="white"/>
<path d="M533.947 127.614V126.455L539.061 118.364H539.902V120.159H539.334L535.47 126.273V126.364H542.357V127.614H533.947ZM539.425 130V127.261V126.722V118.364H540.766V130H539.425ZM548.122 130.159C547.455 130.159 546.855 130.027 546.321 129.761C545.787 129.496 545.359 129.133 545.037 128.67C544.715 128.208 544.539 127.682 544.509 127.091H545.872C545.925 127.617 546.164 128.053 546.588 128.398C547.016 128.739 547.527 128.909 548.122 128.909C548.599 128.909 549.024 128.797 549.395 128.574C549.77 128.35 550.063 128.044 550.276 127.653C550.491 127.259 550.599 126.814 550.599 126.318C550.599 125.811 550.488 125.358 550.264 124.96C550.045 124.559 549.741 124.242 549.355 124.011C548.969 123.78 548.527 123.663 548.031 123.659C547.675 123.655 547.31 123.71 546.935 123.824C546.56 123.934 546.251 124.076 546.009 124.25L544.69 124.091L545.395 118.364H551.44V119.614H546.577L546.168 123.045H546.236C546.474 122.856 546.774 122.699 547.134 122.574C547.493 122.449 547.868 122.386 548.259 122.386C548.971 122.386 549.605 122.557 550.162 122.898C550.723 123.235 551.162 123.697 551.48 124.284C551.802 124.871 551.963 125.542 551.963 126.295C551.963 127.038 551.796 127.701 551.463 128.284C551.134 128.864 550.679 129.322 550.099 129.659C549.52 129.992 548.861 130.159 548.122 130.159ZM558.084 130.159C557.607 130.152 557.129 130.061 556.652 129.886C556.175 129.712 555.739 129.419 555.345 129.006C554.951 128.589 554.635 128.027 554.396 127.318C554.158 126.606 554.038 125.712 554.038 124.636C554.038 123.606 554.135 122.693 554.328 121.898C554.521 121.098 554.802 120.426 555.169 119.881C555.536 119.331 555.98 118.915 556.499 118.631C557.021 118.347 557.61 118.205 558.266 118.205C558.917 118.205 559.497 118.335 560.004 118.597C560.516 118.854 560.932 119.214 561.254 119.676C561.576 120.138 561.785 120.67 561.879 121.273H560.493C560.364 120.75 560.114 120.316 559.743 119.972C559.372 119.627 558.879 119.455 558.266 119.455C557.364 119.455 556.654 119.847 556.135 120.631C555.62 121.415 555.36 122.515 555.357 123.932H555.447C555.66 123.61 555.911 123.335 556.203 123.108C556.499 122.877 556.824 122.699 557.18 122.574C557.536 122.449 557.913 122.386 558.311 122.386C558.978 122.386 559.588 122.553 560.141 122.886C560.694 123.216 561.137 123.672 561.47 124.256C561.804 124.835 561.97 125.5 561.97 126.25C561.97 126.97 561.809 127.629 561.487 128.227C561.165 128.822 560.713 129.295 560.129 129.648C559.55 129.996 558.868 130.167 558.084 130.159ZM558.084 128.909C558.561 128.909 558.989 128.79 559.368 128.551C559.75 128.312 560.052 127.992 560.271 127.591C560.495 127.189 560.607 126.742 560.607 126.25C560.607 125.769 560.499 125.331 560.283 124.938C560.071 124.54 559.777 124.223 559.402 123.989C559.031 123.754 558.607 123.636 558.129 123.636C557.769 123.636 557.434 123.708 557.124 123.852C556.813 123.992 556.54 124.186 556.305 124.432C556.074 124.678 555.893 124.96 555.76 125.278C555.627 125.593 555.561 125.924 555.561 126.273C555.561 126.735 555.669 127.167 555.885 127.568C556.105 127.97 556.404 128.294 556.783 128.54C557.165 128.786 557.599 128.909 558.084 128.909Z" fill="white"/>
<mask id="path-11-inside-2_22020_90508" fill="white">
<path d="M36 148H563V196H36V148Z"/>
</mask>
<path d="M36 149H563V147H36V149Z" fill="#384162" mask="url(#path-11-inside-2_22020_90508)"/>
<path d="M37.2784 178V166.364H41.4261C42.3277 166.364 43.0758 166.519 43.6705 166.83C44.2689 167.14 44.7159 167.57 45.0114 168.119C45.3068 168.665 45.4545 169.295 45.4545 170.011C45.4545 170.723 45.3049 171.35 45.0057 171.892C44.7102 172.43 44.2633 172.848 43.6648 173.148C43.0701 173.447 42.322 173.597 41.4205 173.597H38.2784V172.085H41.2614C41.8295 172.085 42.2917 172.004 42.6477 171.841C43.0076 171.678 43.2708 171.441 43.4375 171.131C43.6042 170.82 43.6875 170.447 43.6875 170.011C43.6875 169.572 43.6023 169.191 43.4318 168.869C43.2652 168.547 43.0019 168.301 42.642 168.131C42.286 167.956 41.8182 167.869 41.2386 167.869H39.0341V178H37.2784ZM43.0227 172.75L45.8977 178H43.8977L41.0795 172.75H43.0227ZM51.0213 178.176C50.2031 178.176 49.4891 177.989 48.8793 177.614C48.2694 177.239 47.7959 176.714 47.4588 176.04C47.1217 175.366 46.9531 174.578 46.9531 173.676C46.9531 172.771 47.1217 171.979 47.4588 171.301C47.7959 170.623 48.2694 170.097 48.8793 169.722C49.4891 169.347 50.2031 169.159 51.0213 169.159C51.8395 169.159 52.5535 169.347 53.1634 169.722C53.7732 170.097 54.2467 170.623 54.5838 171.301C54.9209 171.979 55.0895 172.771 55.0895 173.676C55.0895 174.578 54.9209 175.366 54.5838 176.04C54.2467 176.714 53.7732 177.239 53.1634 177.614C52.5535 177.989 51.8395 178.176 51.0213 178.176ZM51.027 176.75C51.5573 176.75 51.9967 176.61 52.3452 176.33C52.6937 176.049 52.9512 175.676 53.1179 175.21C53.2884 174.744 53.3736 174.231 53.3736 173.67C53.3736 173.114 53.2884 172.602 53.1179 172.136C52.9512 171.667 52.6937 171.29 52.3452 171.006C51.9967 170.722 51.5573 170.58 51.027 170.58C50.4929 170.58 50.0497 170.722 49.6974 171.006C49.349 171.29 49.0895 171.667 48.919 172.136C48.7524 172.602 48.669 173.114 48.669 173.67C48.669 174.231 48.7524 174.744 48.919 175.21C49.0895 175.676 49.349 176.049 49.6974 176.33C50.0497 176.61 50.4929 176.75 51.027 176.75ZM58.6122 178L56.044 169.273H57.7997L59.5099 175.682H59.5952L61.3111 169.273H63.0668L64.7713 175.653H64.8565L66.5554 169.273H68.3111L65.7486 178H64.0156L62.2429 171.699H62.1122L60.3395 178H58.6122ZM74.1349 178V176.727L78.0724 172.648C78.4929 172.205 78.8395 171.816 79.1122 171.483C79.3887 171.146 79.5952 170.826 79.7315 170.523C79.8679 170.22 79.9361 169.898 79.9361 169.557C79.9361 169.17 79.8452 168.837 79.6634 168.557C79.4815 168.273 79.2334 168.055 78.919 167.903C78.6046 167.748 78.2505 167.67 77.8565 167.67C77.4399 167.67 77.0762 167.756 76.7656 167.926C76.455 168.097 76.2164 168.337 76.0497 168.648C75.883 168.958 75.7997 169.322 75.7997 169.739H74.1236C74.1236 169.03 74.2865 168.411 74.6122 167.881C74.938 167.35 75.3849 166.939 75.9531 166.648C76.5213 166.352 77.1671 166.205 77.8906 166.205C78.6217 166.205 79.2656 166.35 79.8224 166.642C80.383 166.93 80.8205 167.324 81.1349 167.824C81.4493 168.32 81.6065 168.881 81.6065 169.506C81.6065 169.938 81.5251 170.36 81.3622 170.773C81.2031 171.186 80.9247 171.646 80.527 172.153C80.1293 172.657 79.5762 173.269 78.8679 173.989L76.5554 176.409V176.494H81.794V178H74.1349Z" fill="white"/>
<path d="M463.983 166.364V178H462.574V167.841H462.506L459.665 169.727V168.295L462.574 166.364H463.983ZM467.33 178V176.977L471.17 172.773C471.621 172.28 471.992 171.852 472.284 171.489C472.576 171.121 472.792 170.777 472.932 170.455C473.076 170.129 473.148 169.788 473.148 169.432C473.148 169.023 473.049 168.669 472.852 168.369C472.659 168.07 472.394 167.839 472.057 167.676C471.72 167.513 471.341 167.432 470.92 167.432C470.473 167.432 470.083 167.525 469.75 167.71C469.42 167.892 469.165 168.148 468.983 168.477C468.805 168.807 468.716 169.193 468.716 169.636H467.375C467.375 168.955 467.532 168.356 467.847 167.841C468.161 167.326 468.589 166.924 469.131 166.636C469.676 166.348 470.288 166.205 470.966 166.205C471.648 166.205 472.252 166.348 472.778 166.636C473.305 166.924 473.718 167.312 474.017 167.801C474.316 168.29 474.466 168.833 474.466 169.432C474.466 169.86 474.388 170.278 474.233 170.688C474.081 171.093 473.816 171.545 473.438 172.045C473.062 172.542 472.542 173.148 471.875 173.864L469.261 176.659V176.75H474.67V178H467.33ZM480.949 178.159C480.199 178.159 479.53 178.03 478.943 177.773C478.36 177.515 477.896 177.157 477.551 176.699C477.21 176.237 477.025 175.701 476.994 175.091H478.426C478.456 175.466 478.585 175.79 478.812 176.062C479.04 176.331 479.337 176.54 479.705 176.688C480.072 176.835 480.479 176.909 480.926 176.909C481.426 176.909 481.869 176.822 482.256 176.648C482.642 176.473 482.945 176.231 483.165 175.92C483.384 175.61 483.494 175.25 483.494 174.841C483.494 174.413 483.388 174.036 483.176 173.71C482.964 173.381 482.653 173.123 482.244 172.938C481.835 172.752 481.335 172.659 480.744 172.659H479.812V171.409H480.744C481.206 171.409 481.612 171.326 481.96 171.159C482.313 170.992 482.587 170.758 482.784 170.455C482.985 170.152 483.085 169.795 483.085 169.386C483.085 168.992 482.998 168.65 482.824 168.358C482.65 168.066 482.403 167.839 482.085 167.676C481.771 167.513 481.4 167.432 480.972 167.432C480.57 167.432 480.191 167.506 479.835 167.653C479.483 167.797 479.195 168.008 478.972 168.284C478.748 168.557 478.627 168.886 478.608 169.273H477.244C477.267 168.663 477.451 168.129 477.795 167.67C478.14 167.208 478.591 166.848 479.148 166.591C479.708 166.333 480.324 166.205 480.994 166.205C481.714 166.205 482.331 166.35 482.847 166.642C483.362 166.93 483.758 167.311 484.034 167.784C484.311 168.258 484.449 168.769 484.449 169.318C484.449 169.973 484.277 170.532 483.932 170.994C483.591 171.456 483.127 171.777 482.54 171.955V172.045C483.275 172.167 483.848 172.479 484.261 172.983C484.674 173.483 484.881 174.102 484.881 174.841C484.881 175.473 484.708 176.042 484.364 176.545C484.023 177.045 483.557 177.439 482.966 177.727C482.375 178.015 481.703 178.159 480.949 178.159Z" fill="white"/>
<path d="M533.947 175.614V174.455L539.061 166.364H539.902V168.159H539.334L535.47 174.273V174.364H542.357V175.614H533.947ZM539.425 178V175.261V174.722V166.364H540.766V178H539.425ZM548.122 178.159C547.455 178.159 546.855 178.027 546.321 177.761C545.787 177.496 545.359 177.133 545.037 176.67C544.715 176.208 544.539 175.682 544.509 175.091H545.872C545.925 175.617 546.164 176.053 546.588 176.398C547.016 176.739 547.527 176.909 548.122 176.909C548.599 176.909 549.024 176.797 549.395 176.574C549.77 176.35 550.063 176.044 550.276 175.653C550.491 175.259 550.599 174.814 550.599 174.318C550.599 173.811 550.488 173.358 550.264 172.96C550.045 172.559 549.741 172.242 549.355 172.011C548.969 171.78 548.527 171.663 548.031 171.659C547.675 171.655 547.31 171.71 546.935 171.824C546.56 171.934 546.251 172.076 546.009 172.25L544.69 172.091L545.395 166.364H551.44V167.614H546.577L546.168 171.045H546.236C546.474 170.856 546.774 170.699 547.134 170.574C547.493 170.449 547.868 170.386 548.259 170.386C548.971 170.386 549.605 170.557 550.162 170.898C550.723 171.235 551.162 171.697 551.48 172.284C551.802 172.871 551.963 173.542 551.963 174.295C551.963 175.038 551.796 175.701 551.463 176.284C551.134 176.864 550.679 177.322 550.099 177.659C549.52 177.992 548.861 178.159 548.122 178.159ZM558.084 178.159C557.607 178.152 557.129 178.061 556.652 177.886C556.175 177.712 555.739 177.419 555.345 177.006C554.951 176.589 554.635 176.027 554.396 175.318C554.158 174.606 554.038 173.712 554.038 172.636C554.038 171.606 554.135 170.693 554.328 169.898C554.521 169.098 554.802 168.426 555.169 167.881C555.536 167.331 555.98 166.915 556.499 166.631C557.021 166.347 557.61 166.205 558.266 166.205C558.917 166.205 559.497 166.335 560.004 166.597C560.516 166.854 560.932 167.214 561.254 167.676C561.576 168.138 561.785 168.67 561.879 169.273H560.493C560.364 168.75 560.114 168.316 559.743 167.972C559.372 167.627 558.879 167.455 558.266 167.455C557.364 167.455 556.654 167.847 556.135 168.631C555.62 169.415 555.36 170.515 555.357 171.932H555.447C555.66 171.61 555.911 171.335 556.203 171.108C556.499 170.877 556.824 170.699 557.18 170.574C557.536 170.449 557.913 170.386 558.311 170.386C558.978 170.386 559.588 170.553 560.141 170.886C560.694 171.216 561.137 171.672 561.47 172.256C561.804 172.835 561.97 173.5 561.97 174.25C561.97 174.97 561.809 175.629 561.487 176.227C561.165 176.822 560.713 177.295 560.129 177.648C559.55 177.996 558.868 178.167 558.084 178.159ZM558.084 176.909C558.561 176.909 558.989 176.79 559.368 176.551C559.75 176.312 560.052 175.992 560.271 175.591C560.495 175.189 560.607 174.742 560.607 174.25C560.607 173.769 560.499 173.331 560.283 172.938C560.071 172.54 559.777 172.223 559.402 171.989C559.031 171.754 558.607 171.636 558.129 171.636C557.769 171.636 557.434 171.708 557.124 171.852C556.813 171.992 556.54 172.186 556.305 172.432C556.074 172.678 555.893 172.96 555.76 173.278C555.627 173.593 555.561 173.924 555.561 174.273C555.561 174.735 555.669 175.167 555.885 175.568C556.105 175.97 556.404 176.294 556.783 176.54C557.165 176.786 557.599 176.909 558.084 176.909Z" fill="white"/>
<mask id="path-16-inside-3_22020_90508" fill="white">
<path d="M36 196H563V244H36V196Z"/>
</mask>
<path d="M36 197H563V195H36V197Z" fill="#384162" mask="url(#path-16-inside-3_22020_90508)"/>
<path d="M37.2784 226V214.364H41.4261C42.3277 214.364 43.0758 214.519 43.6705 214.83C44.2689 215.14 44.7159 215.57 45.0114 216.119C45.3068 216.665 45.4545 217.295 45.4545 218.011C45.4545 218.723 45.3049 219.35 45.0057 219.892C44.7102 220.43 44.2633 220.848 43.6648 221.148C43.0701 221.447 42.322 221.597 41.4205 221.597H38.2784V220.085H41.2614C41.8295 220.085 42.2917 220.004 42.6477 219.841C43.0076 219.678 43.2708 219.441 43.4375 219.131C43.6042 218.82 43.6875 218.447 43.6875 218.011C43.6875 217.572 43.6023 217.191 43.4318 216.869C43.2652 216.547 43.0019 216.301 42.642 216.131C42.286 215.956 41.8182 215.869 41.2386 215.869H39.0341V226H37.2784ZM43.0227 220.75L45.8977 226H43.8977L41.0795 220.75H43.0227ZM51.0213 226.176C50.2031 226.176 49.4891 225.989 48.8793 225.614C48.2694 225.239 47.7959 224.714 47.4588 224.04C47.1217 223.366 46.9531 222.578 46.9531 221.676C46.9531 220.771 47.1217 219.979 47.4588 219.301C47.7959 218.623 48.2694 218.097 48.8793 217.722C49.4891 217.347 50.2031 217.159 51.0213 217.159C51.8395 217.159 52.5535 217.347 53.1634 217.722C53.7732 218.097 54.2467 218.623 54.5838 219.301C54.9209 219.979 55.0895 220.771 55.0895 221.676C55.0895 222.578 54.9209 223.366 54.5838 224.04C54.2467 224.714 53.7732 225.239 53.1634 225.614C52.5535 225.989 51.8395 226.176 51.0213 226.176ZM51.027 224.75C51.5573 224.75 51.9967 224.61 52.3452 224.33C52.6937 224.049 52.9512 223.676 53.1179 223.21C53.2884 222.744 53.3736 222.231 53.3736 221.67C53.3736 221.114 53.2884 220.602 53.1179 220.136C52.9512 219.667 52.6937 219.29 52.3452 219.006C51.9967 218.722 51.5573 218.58 51.027 218.58C50.4929 218.58 50.0497 218.722 49.6974 219.006C49.349 219.29 49.0895 219.667 48.919 220.136C48.7524 220.602 48.669 221.114 48.669 221.67C48.669 222.231 48.7524 222.744 48.919 223.21C49.0895 223.676 49.349 224.049 49.6974 224.33C50.0497 224.61 50.4929 224.75 51.027 224.75ZM58.6122 226L56.044 217.273H57.7997L59.5099 223.682H59.5952L61.3111 217.273H63.0668L64.7713 223.653H64.8565L66.5554 217.273H68.3111L65.7486 226H64.0156L62.2429 219.699H62.1122L60.3395 226H58.6122ZM78.1861 226.159C77.4058 226.159 76.7088 226.025 76.0952 225.756C75.4853 225.487 75.0024 225.114 74.6463 224.636C74.294 224.155 74.1046 223.598 74.0781 222.966H75.8622C75.8849 223.311 76.0005 223.61 76.2088 223.864C76.4209 224.114 76.6974 224.307 77.0384 224.443C77.3793 224.58 77.758 224.648 78.1747 224.648C78.633 224.648 79.0384 224.568 79.3906 224.409C79.7467 224.25 80.0251 224.028 80.2259 223.744C80.4266 223.456 80.527 223.125 80.527 222.75C80.527 222.36 80.4266 222.017 80.2259 221.722C80.0289 221.422 79.7391 221.187 79.3565 221.017C78.9777 220.847 78.5194 220.761 77.9815 220.761H76.9986V219.33H77.9815C78.4134 219.33 78.7921 219.252 79.1179 219.097C79.4474 218.941 79.705 218.725 79.8906 218.449C80.0762 218.169 80.169 217.841 80.169 217.466C80.169 217.106 80.0876 216.794 79.9247 216.528C79.7656 216.259 79.5384 216.049 79.2429 215.898C78.9512 215.746 78.6065 215.67 78.2088 215.67C77.83 215.67 77.4759 215.741 77.1463 215.881C76.8205 216.017 76.5554 216.214 76.3509 216.472C76.1463 216.725 76.0365 217.03 76.0213 217.386H74.3224C74.3414 216.758 74.527 216.205 74.8793 215.727C75.2353 215.25 75.705 214.877 76.2884 214.608C76.8717 214.339 77.5194 214.205 78.2315 214.205C78.9777 214.205 79.6217 214.35 80.1634 214.642C80.7088 214.93 81.1293 215.314 81.4247 215.795C81.724 216.277 81.8717 216.803 81.8679 217.375C81.8717 218.027 81.6899 218.58 81.3224 219.034C80.9588 219.489 80.474 219.794 79.8679 219.949V220.04C80.6406 220.157 81.2391 220.464 81.6634 220.96C82.0914 221.456 82.3035 222.072 82.2997 222.807C82.3035 223.447 82.1255 224.021 81.7656 224.528C81.4096 225.036 80.9228 225.436 80.3054 225.727C79.688 226.015 78.9815 226.159 78.1861 226.159Z" fill="white"/>
<path d="M463.983 214.364V226H462.574V215.841H462.506L459.665 217.727V216.295L462.574 214.364H463.983ZM467.33 226V224.977L471.17 220.773C471.621 220.28 471.992 219.852 472.284 219.489C472.576 219.121 472.792 218.777 472.932 218.455C473.076 218.129 473.148 217.788 473.148 217.432C473.148 217.023 473.049 216.669 472.852 216.369C472.659 216.07 472.394 215.839 472.057 215.676C471.72 215.513 471.341 215.432 470.92 215.432C470.473 215.432 470.083 215.525 469.75 215.71C469.42 215.892 469.165 216.148 468.983 216.477C468.805 216.807 468.716 217.193 468.716 217.636H467.375C467.375 216.955 467.532 216.356 467.847 215.841C468.161 215.326 468.589 214.924 469.131 214.636C469.676 214.348 470.288 214.205 470.966 214.205C471.648 214.205 472.252 214.348 472.778 214.636C473.305 214.924 473.718 215.312 474.017 215.801C474.316 216.29 474.466 216.833 474.466 217.432C474.466 217.86 474.388 218.278 474.233 218.688C474.081 219.093 473.816 219.545 473.438 220.045C473.062 220.542 472.542 221.148 471.875 221.864L469.261 224.659V224.75H474.67V226H467.33ZM480.949 226.159C480.199 226.159 479.53 226.03 478.943 225.773C478.36 225.515 477.896 225.157 477.551 224.699C477.21 224.237 477.025 223.701 476.994 223.091H478.426C478.456 223.466 478.585 223.79 478.812 224.062C479.04 224.331 479.337 224.54 479.705 224.688C480.072 224.835 480.479 224.909 480.926 224.909C481.426 224.909 481.869 224.822 482.256 224.648C482.642 224.473 482.945 224.231 483.165 223.92C483.384 223.61 483.494 223.25 483.494 222.841C483.494 222.413 483.388 222.036 483.176 221.71C482.964 221.381 482.653 221.123 482.244 220.938C481.835 220.752 481.335 220.659 480.744 220.659H479.812V219.409H480.744C481.206 219.409 481.612 219.326 481.96 219.159C482.313 218.992 482.587 218.758 482.784 218.455C482.985 218.152 483.085 217.795 483.085 217.386C483.085 216.992 482.998 216.65 482.824 216.358C482.65 216.066 482.403 215.839 482.085 215.676C481.771 215.513 481.4 215.432 480.972 215.432C480.57 215.432 480.191 215.506 479.835 215.653C479.483 215.797 479.195 216.008 478.972 216.284C478.748 216.557 478.627 216.886 478.608 217.273H477.244C477.267 216.663 477.451 216.129 477.795 215.67C478.14 215.208 478.591 214.848 479.148 214.591C479.708 214.333 480.324 214.205 480.994 214.205C481.714 214.205 482.331 214.35 482.847 214.642C483.362 214.93 483.758 215.311 484.034 215.784C484.311 216.258 484.449 216.769 484.449 217.318C484.449 217.973 484.277 218.532 483.932 218.994C483.591 219.456 483.127 219.777 482.54 219.955V220.045C483.275 220.167 483.848 220.479 484.261 220.983C484.674 221.483 484.881 222.102 484.881 222.841C484.881 223.473 484.708 224.042 484.364 224.545C484.023 225.045 483.557 225.439 482.966 225.727C482.375 226.015 481.703 226.159 480.949 226.159Z" fill="white"/>
<path d="M533.947 223.614V222.455L539.061 214.364H539.902V216.159H539.334L535.47 222.273V222.364H542.357V223.614H533.947ZM539.425 226V223.261V222.722V214.364H540.766V226H539.425ZM548.122 226.159C547.455 226.159 546.855 226.027 546.321 225.761C545.787 225.496 545.359 225.133 545.037 224.67C544.715 224.208 544.539 223.682 544.509 223.091H545.872C545.925 223.617 546.164 224.053 546.588 224.398C547.016 224.739 547.527 224.909 548.122 224.909C548.599 224.909 549.024 224.797 549.395 224.574C549.77 224.35 550.063 224.044 550.276 223.653C550.491 223.259 550.599 222.814 550.599 222.318C550.599 221.811 550.488 221.358 550.264 220.96C550.045 220.559 549.741 220.242 549.355 220.011C548.969 219.78 548.527 219.663 548.031 219.659C547.675 219.655 547.31 219.71 546.935 219.824C546.56 219.934 546.251 220.076 546.009 220.25L544.69 220.091L545.395 214.364H551.44V215.614H546.577L546.168 219.045H546.236C546.474 218.856 546.774 218.699 547.134 218.574C547.493 218.449 547.868 218.386 548.259 218.386C548.971 218.386 549.605 218.557 550.162 218.898C550.723 219.235 551.162 219.697 551.48 220.284C551.802 220.871 551.963 221.542 551.963 222.295C551.963 223.038 551.796 223.701 551.463 224.284C551.134 224.864 550.679 225.322 550.099 225.659C549.52 225.992 548.861 226.159 548.122 226.159ZM558.084 226.159C557.607 226.152 557.129 226.061 556.652 225.886C556.175 225.712 555.739 225.419 555.345 225.006C554.951 224.589 554.635 224.027 554.396 223.318C554.158 222.606 554.038 221.712 554.038 220.636C554.038 219.606 554.135 218.693 554.328 217.898C554.521 217.098 554.802 216.426 555.169 215.881C555.536 215.331 555.98 214.915 556.499 214.631C557.021 214.347 557.61 214.205 558.266 214.205C558.917 214.205 559.497 214.335 560.004 214.597C560.516 214.854 560.932 215.214 561.254 215.676C561.576 216.138 561.785 216.67 561.879 217.273H560.493C560.364 216.75 560.114 216.316 559.743 215.972C559.372 215.627 558.879 215.455 558.266 215.455C557.364 215.455 556.654 215.847 556.135 216.631C555.62 217.415 555.36 218.515 555.357 219.932H555.447C555.66 219.61 555.911 219.335 556.203 219.108C556.499 218.877 556.824 218.699 557.18 218.574C557.536 218.449 557.913 218.386 558.311 218.386C558.978 218.386 559.588 218.553 560.141 218.886C560.694 219.216 561.137 219.672 561.47 220.256C561.804 220.835 561.97 221.5 561.97 222.25C561.97 222.97 561.809 223.629 561.487 224.227C561.165 224.822 560.713 225.295 560.129 225.648C559.55 225.996 558.868 226.167 558.084 226.159ZM558.084 224.909C558.561 224.909 558.989 224.79 559.368 224.551C559.75 224.312 560.052 223.992 560.271 223.591C560.495 223.189 560.607 222.742 560.607 222.25C560.607 221.769 560.499 221.331 560.283 220.938C560.071 220.54 559.777 220.223 559.402 219.989C559.031 219.754 558.607 219.636 558.129 219.636C557.769 219.636 557.434 219.708 557.124 219.852C556.813 219.992 556.54 220.186 556.305 220.432C556.074 220.678 555.893 220.96 555.76 221.278C555.627 221.593 555.561 221.924 555.561 222.273C555.561 222.735 555.669 223.167 555.885 223.568C556.105 223.97 556.404 224.294 556.783 224.54C557.165 224.786 557.599 224.909 558.084 224.909Z" fill="white"/>
<mask id="path-21-inside-4_22020_90508" fill="white">
<path d="M36 244H563V292H36V244Z"/>
</mask>
<path d="M36 245H563V243H36V245Z" fill="#384162" mask="url(#path-21-inside-4_22020_90508)"/>
<path d="M37.2784 274V262.364H41.4261C42.3277 262.364 43.0758 262.519 43.6705 262.83C44.2689 263.14 44.7159 263.57 45.0114 264.119C45.3068 264.665 45.4545 265.295 45.4545 266.011C45.4545 266.723 45.3049 267.35 45.0057 267.892C44.7102 268.43 44.2633 268.848 43.6648 269.148C43.0701 269.447 42.322 269.597 41.4205 269.597H38.2784V268.085H41.2614C41.8295 268.085 42.2917 268.004 42.6477 267.841C43.0076 267.678 43.2708 267.441 43.4375 267.131C43.6042 266.82 43.6875 266.447 43.6875 266.011C43.6875 265.572 43.6023 265.191 43.4318 264.869C43.2652 264.547 43.0019 264.301 42.642 264.131C42.286 263.956 41.8182 263.869 41.2386 263.869H39.0341V274H37.2784ZM43.0227 268.75L45.8977 274H43.8977L41.0795 268.75H43.0227ZM51.0213 274.176C50.2031 274.176 49.4891 273.989 48.8793 273.614C48.2694 273.239 47.7959 272.714 47.4588 272.04C47.1217 271.366 46.9531 270.578 46.9531 269.676C46.9531 268.771 47.1217 267.979 47.4588 267.301C47.7959 266.623 48.2694 266.097 48.8793 265.722C49.4891 265.347 50.2031 265.159 51.0213 265.159C51.8395 265.159 52.5535 265.347 53.1634 265.722C53.7732 266.097 54.2467 266.623 54.5838 267.301C54.9209 267.979 55.0895 268.771 55.0895 269.676C55.0895 270.578 54.9209 271.366 54.5838 272.04C54.2467 272.714 53.7732 273.239 53.1634 273.614C52.5535 273.989 51.8395 274.176 51.0213 274.176ZM51.027 272.75C51.5573 272.75 51.9967 272.61 52.3452 272.33C52.6937 272.049 52.9512 271.676 53.1179 271.21C53.2884 270.744 53.3736 270.231 53.3736 269.67C53.3736 269.114 53.2884 268.602 53.1179 268.136C52.9512 267.667 52.6937 267.29 52.3452 267.006C51.9967 266.722 51.5573 266.58 51.027 266.58C50.4929 266.58 50.0497 266.722 49.6974 267.006C49.349 267.29 49.0895 267.667 48.919 268.136C48.7524 268.602 48.669 269.114 48.669 269.67C48.669 270.231 48.7524 270.744 48.919 271.21C49.0895 271.676 49.349 272.049 49.6974 272.33C50.0497 272.61 50.4929 272.75 51.027 272.75ZM58.6122 274L56.044 265.273H57.7997L59.5099 271.682H59.5952L61.3111 265.273H63.0668L64.7713 271.653H64.8565L66.5554 265.273H68.3111L65.7486 274H64.0156L62.2429 267.699H62.1122L60.3395 274H58.6122ZM73.8906 271.727V270.307L78.919 262.364H80.0384V264.455H79.3281L75.7315 270.148V270.239H82.6236V271.727H73.8906ZM79.4077 274V271.295L79.419 270.648V262.364H81.0838V274H79.4077Z" fill="white"/>
<path d="M463.983 262.364V274H462.574V263.841H462.506L459.665 265.727V264.295L462.574 262.364H463.983ZM467.33 274V272.977L471.17 268.773C471.621 268.28 471.992 267.852 472.284 267.489C472.576 267.121 472.792 266.777 472.932 266.455C473.076 266.129 473.148 265.788 473.148 265.432C473.148 265.023 473.049 264.669 472.852 264.369C472.659 264.07 472.394 263.839 472.057 263.676C471.72 263.513 471.341 263.432 470.92 263.432C470.473 263.432 470.083 263.525 469.75 263.71C469.42 263.892 469.165 264.148 468.983 264.477C468.805 264.807 468.716 265.193 468.716 265.636H467.375C467.375 264.955 467.532 264.356 467.847 263.841C468.161 263.326 468.589 262.924 469.131 262.636C469.676 262.348 470.288 262.205 470.966 262.205C471.648 262.205 472.252 262.348 472.778 262.636C473.305 262.924 473.718 263.312 474.017 263.801C474.316 264.29 474.466 264.833 474.466 265.432C474.466 265.86 474.388 266.278 474.233 266.688C474.081 267.093 473.816 267.545 473.438 268.045C473.062 268.542 472.542 269.148 471.875 269.864L469.261 272.659V272.75H474.67V274H467.33ZM480.949 274.159C480.199 274.159 479.53 274.03 478.943 273.773C478.36 273.515 477.896 273.157 477.551 272.699C477.21 272.237 477.025 271.701 476.994 271.091H478.426C478.456 271.466 478.585 271.79 478.812 272.062C479.04 272.331 479.337 272.54 479.705 272.688C480.072 272.835 480.479 272.909 480.926 272.909C481.426 272.909 481.869 272.822 482.256 272.648C482.642 272.473 482.945 272.231 483.165 271.92C483.384 271.61 483.494 271.25 483.494 270.841C483.494 270.413 483.388 270.036 483.176 269.71C482.964 269.381 482.653 269.123 482.244 268.938C481.835 268.752 481.335 268.659 480.744 268.659H479.812V267.409H480.744C481.206 267.409 481.612 267.326 481.96 267.159C482.313 266.992 482.587 266.758 482.784 266.455C482.985 266.152 483.085 265.795 483.085 265.386C483.085 264.992 482.998 264.65 482.824 264.358C482.65 264.066 482.403 263.839 482.085 263.676C481.771 263.513 481.4 263.432 480.972 263.432C480.57 263.432 480.191 263.506 479.835 263.653C479.483 263.797 479.195 264.008 478.972 264.284C478.748 264.557 478.627 264.886 478.608 265.273H477.244C477.267 264.663 477.451 264.129 477.795 263.67C478.14 263.208 478.591 262.848 479.148 262.591C479.708 262.333 480.324 262.205 480.994 262.205C481.714 262.205 482.331 262.35 482.847 262.642C483.362 262.93 483.758 263.311 484.034 263.784C484.311 264.258 484.449 264.769 484.449 265.318C484.449 265.973 484.277 266.532 483.932 266.994C483.591 267.456 483.127 267.777 482.54 267.955V268.045C483.275 268.167 483.848 268.479 484.261 268.983C484.674 269.483 484.881 270.102 484.881 270.841C484.881 271.473 484.708 272.042 484.364 272.545C484.023 273.045 483.557 273.439 482.966 273.727C482.375 274.015 481.703 274.159 480.949 274.159Z" fill="white"/>
<path d="M533.947 271.614V270.455L539.061 262.364H539.902V264.159H539.334L535.47 270.273V270.364H542.357V271.614H533.947ZM539.425 274V271.261V270.722V262.364H540.766V274H539.425ZM548.122 274.159C547.455 274.159 546.855 274.027 546.321 273.761C545.787 273.496 545.359 273.133 545.037 272.67C544.715 272.208 544.539 271.682 544.509 271.091H545.872C545.925 271.617 546.164 272.053 546.588 272.398C547.016 272.739 547.527 272.909 548.122 272.909C548.599 272.909 549.024 272.797 549.395 272.574C549.77 272.35 550.063 272.044 550.276 271.653C550.491 271.259 550.599 270.814 550.599 270.318C550.599 269.811 550.488 269.358 550.264 268.96C550.045 268.559 549.741 268.242 549.355 268.011C548.969 267.78 548.527 267.663 548.031 267.659C547.675 267.655 547.31 267.71 546.935 267.824C546.56 267.934 546.251 268.076 546.009 268.25L544.69 268.091L545.395 262.364H551.44V263.614H546.577L546.168 267.045H546.236C546.474 266.856 546.774 266.699 547.134 266.574C547.493 266.449 547.868 266.386 548.259 266.386C548.971 266.386 549.605 266.557 550.162 266.898C550.723 267.235 551.162 267.697 551.48 268.284C551.802 268.871 551.963 269.542 551.963 270.295C551.963 271.038 551.796 271.701 551.463 272.284C551.134 272.864 550.679 273.322 550.099 273.659C549.52 273.992 548.861 274.159 548.122 274.159ZM558.084 274.159C557.607 274.152 557.129 274.061 556.652 273.886C556.175 273.712 555.739 273.419 555.345 273.006C554.951 272.589 554.635 272.027 554.396 271.318C554.158 270.606 554.038 269.712 554.038 268.636C554.038 267.606 554.135 266.693 554.328 265.898C554.521 265.098 554.802 264.426 555.169 263.881C555.536 263.331 555.98 262.915 556.499 262.631C557.021 262.347 557.61 262.205 558.266 262.205C558.917 262.205 559.497 262.335 560.004 262.597C560.516 262.854 560.932 263.214 561.254 263.676C561.576 264.138 561.785 264.67 561.879 265.273H560.493C560.364 264.75 560.114 264.316 559.743 263.972C559.372 263.627 558.879 263.455 558.266 263.455C557.364 263.455 556.654 263.847 556.135 264.631C555.62 265.415 555.36 266.515 555.357 267.932H555.447C555.66 267.61 555.911 267.335 556.203 267.108C556.499 266.877 556.824 266.699 557.18 266.574C557.536 266.449 557.913 266.386 558.311 266.386C558.978 266.386 559.588 266.553 560.141 266.886C560.694 267.216 561.137 267.672 561.47 268.256C561.804 268.835 561.97 269.5 561.97 270.25C561.97 270.97 561.809 271.629 561.487 272.227C561.165 272.822 560.713 273.295 560.129 273.648C559.55 273.996 558.868 274.167 558.084 274.159ZM558.084 272.909C558.561 272.909 558.989 272.79 559.368 272.551C559.75 272.312 560.052 271.992 560.271 271.591C560.495 271.189 560.607 270.742 560.607 270.25C560.607 269.769 560.499 269.331 560.283 268.938C560.071 268.54 559.777 268.223 559.402 267.989C559.031 267.754 558.607 267.636 558.129 267.636C557.769 267.636 557.434 267.708 557.124 267.852C556.813 267.992 556.54 268.186 556.305 268.432C556.074 268.678 555.893 268.96 555.76 269.278C555.627 269.593 555.561 269.924 555.561 270.273C555.561 270.735 555.669 271.167 555.885 271.568C556.105 271.97 556.404 272.294 556.783 272.54C557.165 272.786 557.599 272.909 558.084 272.909Z" fill="white"/>
<mask id="path-26-inside-5_22020_90508" fill="white">
<path d="M36 292H563V340H36V292Z"/>
</mask>
<path d="M36 293H563V291H36V293Z" fill="#384162" mask="url(#path-26-inside-5_22020_90508)"/>
<path d="M37.2784 322V310.364H41.4261C42.3277 310.364 43.0758 310.519 43.6705 310.83C44.2689 311.14 44.7159 311.57 45.0114 312.119C45.3068 312.665 45.4545 313.295 45.4545 314.011C45.4545 314.723 45.3049 315.35 45.0057 315.892C44.7102 316.43 44.2633 316.848 43.6648 317.148C43.0701 317.447 42.322 317.597 41.4205 317.597H38.2784V316.085H41.2614C41.8295 316.085 42.2917 316.004 42.6477 315.841C43.0076 315.678 43.2708 315.441 43.4375 315.131C43.6042 314.82 43.6875 314.447 43.6875 314.011C43.6875 313.572 43.6023 313.191 43.4318 312.869C43.2652 312.547 43.0019 312.301 42.642 312.131C42.286 311.956 41.8182 311.869 41.2386 311.869H39.0341V322H37.2784ZM43.0227 316.75L45.8977 322H43.8977L41.0795 316.75H43.0227ZM51.0213 322.176C50.2031 322.176 49.4891 321.989 48.8793 321.614C48.2694 321.239 47.7959 320.714 47.4588 320.04C47.1217 319.366 46.9531 318.578 46.9531 317.676C46.9531 316.771 47.1217 315.979 47.4588 315.301C47.7959 314.623 48.2694 314.097 48.8793 313.722C49.4891 313.347 50.2031 313.159 51.0213 313.159C51.8395 313.159 52.5535 313.347 53.1634 313.722C53.7732 314.097 54.2467 314.623 54.5838 315.301C54.9209 315.979 55.0895 316.771 55.0895 317.676C55.0895 318.578 54.9209 319.366 54.5838 320.04C54.2467 320.714 53.7732 321.239 53.1634 321.614C52.5535 321.989 51.8395 322.176 51.0213 322.176ZM51.027 320.75C51.5573 320.75 51.9967 320.61 52.3452 320.33C52.6937 320.049 52.9512 319.676 53.1179 319.21C53.2884 318.744 53.3736 318.231 53.3736 317.67C53.3736 317.114 53.2884 316.602 53.1179 316.136C52.9512 315.667 52.6937 315.29 52.3452 315.006C51.9967 314.722 51.5573 314.58 51.027 314.58C50.4929 314.58 50.0497 314.722 49.6974 315.006C49.349 315.29 49.0895 315.667 48.919 316.136C48.7524 316.602 48.669 317.114 48.669 317.67C48.669 318.231 48.7524 318.744 48.919 319.21C49.0895 319.676 49.349 320.049 49.6974 320.33C50.0497 320.61 50.4929 320.75 51.027 320.75ZM58.6122 322L56.044 313.273H57.7997L59.5099 319.682H59.5952L61.3111 313.273H63.0668L64.7713 319.653H64.8565L66.5554 313.273H68.3111L65.7486 322H64.0156L62.2429 315.699H62.1122L60.3395 322H58.6122ZM77.9759 322.159C77.2637 322.159 76.6236 322.023 76.0554 321.75C75.491 321.473 75.0402 321.095 74.7031 320.614C74.366 320.133 74.1861 319.583 74.1634 318.966H75.8679C75.9096 319.466 76.1312 319.877 76.5327 320.199C76.9342 320.521 77.4152 320.682 77.9759 320.682C78.4228 320.682 78.8187 320.58 79.1634 320.375C79.5118 320.167 79.7846 319.881 79.9815 319.517C80.1823 319.153 80.2827 318.739 80.2827 318.273C80.2827 317.799 80.1804 317.377 79.9759 317.006C79.7713 316.634 79.4891 316.343 79.1293 316.131C78.7732 315.919 78.3641 315.811 77.902 315.807C77.5497 315.807 77.1955 315.867 76.8395 315.989C76.4834 316.11 76.1955 316.269 75.9759 316.466L74.3679 316.227L75.0213 310.364H81.419V311.869H76.4815L76.1122 315.125H76.1804C76.4077 314.905 76.7088 314.722 77.0838 314.574C77.4626 314.426 77.8679 314.352 78.2997 314.352C79.008 314.352 79.6387 314.521 80.1918 314.858C80.7486 315.195 81.1861 315.655 81.5043 316.239C81.8262 316.818 81.9853 317.485 81.9815 318.239C81.9853 318.992 81.8149 319.665 81.4702 320.256C81.1293 320.847 80.6558 321.312 80.0497 321.653C79.4474 321.991 78.7562 322.159 77.9759 322.159Z" fill="white"/>
<path d="M463.983 310.364V322H462.574V311.841H462.506L459.665 313.727V312.295L462.574 310.364H463.983ZM467.33 322V320.977L471.17 316.773C471.621 316.28 471.992 315.852 472.284 315.489C472.576 315.121 472.792 314.777 472.932 314.455C473.076 314.129 473.148 313.788 473.148 313.432C473.148 313.023 473.049 312.669 472.852 312.369C472.659 312.07 472.394 311.839 472.057 311.676C471.72 311.513 471.341 311.432 470.92 311.432C470.473 311.432 470.083 311.525 469.75 311.71C469.42 311.892 469.165 312.148 468.983 312.477C468.805 312.807 468.716 313.193 468.716 313.636H467.375C467.375 312.955 467.532 312.356 467.847 311.841C468.161 311.326 468.589 310.924 469.131 310.636C469.676 310.348 470.288 310.205 470.966 310.205C471.648 310.205 472.252 310.348 472.778 310.636C473.305 310.924 473.718 311.312 474.017 311.801C474.316 312.29 474.466 312.833 474.466 313.432C474.466 313.86 474.388 314.278 474.233 314.688C474.081 315.093 473.816 315.545 473.438 316.045C473.062 316.542 472.542 317.148 471.875 317.864L469.261 320.659V320.75H474.67V322H467.33ZM480.949 322.159C480.199 322.159 479.53 322.03 478.943 321.773C478.36 321.515 477.896 321.157 477.551 320.699C477.21 320.237 477.025 319.701 476.994 319.091H478.426C478.456 319.466 478.585 319.79 478.812 320.062C479.04 320.331 479.337 320.54 479.705 320.688C480.072 320.835 480.479 320.909 480.926 320.909C481.426 320.909 481.869 320.822 482.256 320.648C482.642 320.473 482.945 320.231 483.165 319.92C483.384 319.61 483.494 319.25 483.494 318.841C483.494 318.413 483.388 318.036 483.176 317.71C482.964 317.381 482.653 317.123 482.244 316.938C481.835 316.752 481.335 316.659 480.744 316.659H479.812V315.409H480.744C481.206 315.409 481.612 315.326 481.96 315.159C482.313 314.992 482.587 314.758 482.784 314.455C482.985 314.152 483.085 313.795 483.085 313.386C483.085 312.992 482.998 312.65 482.824 312.358C482.65 312.066 482.403 311.839 482.085 311.676C481.771 311.513 481.4 311.432 480.972 311.432C480.57 311.432 480.191 311.506 479.835 311.653C479.483 311.797 479.195 312.008 478.972 312.284C478.748 312.557 478.627 312.886 478.608 313.273H477.244C477.267 312.663 477.451 312.129 477.795 311.67C478.14 311.208 478.591 310.848 479.148 310.591C479.708 310.333 480.324 310.205 480.994 310.205C481.714 310.205 482.331 310.35 482.847 310.642C483.362 310.93 483.758 311.311 484.034 311.784C484.311 312.258 484.449 312.769 484.449 313.318C484.449 313.973 484.277 314.532 483.932 314.994C483.591 315.456 483.127 315.777 482.54 315.955V316.045C483.275 316.167 483.848 316.479 484.261 316.983C484.674 317.483 484.881 318.102 484.881 318.841C484.881 319.473 484.708 320.042 484.364 320.545C484.023 321.045 483.557 321.439 482.966 321.727C482.375 322.015 481.703 322.159 480.949 322.159Z" fill="white"/>
<path d="M533.947 319.614V318.455L539.061 310.364H539.902V312.159H539.334L535.47 318.273V318.364H542.357V319.614H533.947ZM539.425 322V319.261V318.722V310.364H540.766V322H539.425ZM548.122 322.159C547.455 322.159 546.855 322.027 546.321 321.761C545.787 321.496 545.359 321.133 545.037 320.67C544.715 320.208 544.539 319.682 544.509 319.091H545.872C545.925 319.617 546.164 320.053 546.588 320.398C547.016 320.739 547.527 320.909 548.122 320.909C548.599 320.909 549.024 320.797 549.395 320.574C549.77 320.35 550.063 320.044 550.276 319.653C550.491 319.259 550.599 318.814 550.599 318.318C550.599 317.811 550.488 317.358 550.264 316.96C550.045 316.559 549.741 316.242 549.355 316.011C548.969 315.78 548.527 315.663 548.031 315.659C547.675 315.655 547.31 315.71 546.935 315.824C546.56 315.934 546.251 316.076 546.009 316.25L544.69 316.091L545.395 310.364H551.44V311.614H546.577L546.168 315.045H546.236C546.474 314.856 546.774 314.699 547.134 314.574C547.493 314.449 547.868 314.386 548.259 314.386C548.971 314.386 549.605 314.557 550.162 314.898C550.723 315.235 551.162 315.697 551.48 316.284C551.802 316.871 551.963 317.542 551.963 318.295C551.963 319.038 551.796 319.701 551.463 320.284C551.134 320.864 550.679 321.322 550.099 321.659C549.52 321.992 548.861 322.159 548.122 322.159ZM558.084 322.159C557.607 322.152 557.129 322.061 556.652 321.886C556.175 321.712 555.739 321.419 555.345 321.006C554.951 320.589 554.635 320.027 554.396 319.318C554.158 318.606 554.038 317.712 554.038 316.636C554.038 315.606 554.135 314.693 554.328 313.898C554.521 313.098 554.802 312.426 555.169 311.881C555.536 311.331 555.98 310.915 556.499 310.631C557.021 310.347 557.61 310.205 558.266 310.205C558.917 310.205 559.497 310.335 560.004 310.597C560.516 310.854 560.932 311.214 561.254 311.676C561.576 312.138 561.785 312.67 561.879 313.273H560.493C560.364 312.75 560.114 312.316 559.743 311.972C559.372 311.627 558.879 311.455 558.266 311.455C557.364 311.455 556.654 311.847 556.135 312.631C555.62 313.415 555.36 314.515 555.357 315.932H555.447C555.66 315.61 555.911 315.335 556.203 315.108C556.499 314.877 556.824 314.699 557.18 314.574C557.536 314.449 557.913 314.386 558.311 314.386C558.978 314.386 559.588 314.553 560.141 314.886C560.694 315.216 561.137 315.672 561.47 316.256C561.804 316.835 561.97 317.5 561.97 318.25C561.97 318.97 561.809 319.629 561.487 320.227C561.165 320.822 560.713 321.295 560.129 321.648C559.55 321.996 558.868 322.167 558.084 322.159ZM558.084 320.909C558.561 320.909 558.989 320.79 559.368 320.551C559.75 320.312 560.052 319.992 560.271 319.591C560.495 319.189 560.607 318.742 560.607 318.25C560.607 317.769 560.499 317.331 560.283 316.938C560.071 316.54 559.777 316.223 559.402 315.989C559.031 315.754 558.607 315.636 558.129 315.636C557.769 315.636 557.434 315.708 557.124 315.852C556.813 315.992 556.54 316.186 556.305 316.432C556.074 316.678 555.893 316.96 555.76 317.278C555.627 317.593 555.561 317.924 555.561 318.273C555.561 318.735 555.669 319.167 555.885 319.568C556.105 319.97 556.404 320.294 556.783 320.54C557.165 320.786 557.599 320.909 558.084 320.909Z" fill="white"/>
<mask id="path-31-inside-6_22020_90508" fill="white">
<path d="M36 340H563V388H36V340Z"/>
</mask>
<path d="M36 341H563V339H36V341Z" fill="#384162" mask="url(#path-31-inside-6_22020_90508)"/>
<path d="M37.2784 370V358.364H41.4261C42.3277 358.364 43.0758 358.519 43.6705 358.83C44.2689 359.14 44.7159 359.57 45.0114 360.119C45.3068 360.665 45.4545 361.295 45.4545 362.011C45.4545 362.723 45.3049 363.35 45.0057 363.892C44.7102 364.43 44.2633 364.848 43.6648 365.148C43.0701 365.447 42.322 365.597 41.4205 365.597H38.2784V364.085H41.2614C41.8295 364.085 42.2917 364.004 42.6477 363.841C43.0076 363.678 43.2708 363.441 43.4375 363.131C43.6042 362.82 43.6875 362.447 43.6875 362.011C43.6875 361.572 43.6023 361.191 43.4318 360.869C43.2652 360.547 43.0019 360.301 42.642 360.131C42.286 359.956 41.8182 359.869 41.2386 359.869H39.0341V370H37.2784ZM43.0227 364.75L45.8977 370H43.8977L41.0795 364.75H43.0227ZM51.0213 370.176C50.2031 370.176 49.4891 369.989 48.8793 369.614C48.2694 369.239 47.7959 368.714 47.4588 368.04C47.1217 367.366 46.9531 366.578 46.9531 365.676C46.9531 364.771 47.1217 363.979 47.4588 363.301C47.7959 362.623 48.2694 362.097 48.8793 361.722C49.4891 361.347 50.2031 361.159 51.0213 361.159C51.8395 361.159 52.5535 361.347 53.1634 361.722C53.7732 362.097 54.2467 362.623 54.5838 363.301C54.9209 363.979 55.0895 364.771 55.0895 365.676C55.0895 366.578 54.9209 367.366 54.5838 368.04C54.2467 368.714 53.7732 369.239 53.1634 369.614C52.5535 369.989 51.8395 370.176 51.0213 370.176ZM51.027 368.75C51.5573 368.75 51.9967 368.61 52.3452 368.33C52.6937 368.049 52.9512 367.676 53.1179 367.21C53.2884 366.744 53.3736 366.231 53.3736 365.67C53.3736 365.114 53.2884 364.602 53.1179 364.136C52.9512 363.667 52.6937 363.29 52.3452 363.006C51.9967 362.722 51.5573 362.58 51.027 362.58C50.4929 362.58 50.0497 362.722 49.6974 363.006C49.349 363.29 49.0895 363.667 48.919 364.136C48.7524 364.602 48.669 365.114 48.669 365.67C48.669 366.231 48.7524 366.744 48.919 367.21C49.0895 367.676 49.349 368.049 49.6974 368.33C50.0497 368.61 50.4929 368.75 51.027 368.75ZM58.6122 370L56.044 361.273H57.7997L59.5099 367.682H59.5952L61.3111 361.273H63.0668L64.7713 367.653H64.8565L66.5554 361.273H68.3111L65.7486 370H64.0156L62.2429 363.699H62.1122L60.3395 370H58.6122ZM78.1974 370.159C77.6785 370.152 77.1671 370.057 76.6634 369.875C76.1634 369.693 75.7088 369.39 75.2997 368.966C74.8906 368.542 74.563 367.972 74.3168 367.256C74.0743 366.54 73.9531 365.646 73.9531 364.574C73.9531 363.559 74.0535 362.657 74.2543 361.869C74.4588 361.081 74.7524 360.417 75.1349 359.875C75.5175 359.33 75.9796 358.915 76.5213 358.631C77.063 358.347 77.6709 358.205 78.3452 358.205C79.0384 358.205 79.6539 358.341 80.1918 358.614C80.7296 358.886 81.1652 359.263 81.4986 359.744C81.8357 360.225 82.0497 360.773 82.1406 361.386H80.4077C80.2902 360.902 80.0573 360.506 79.7088 360.199C79.3603 359.892 78.9058 359.739 78.3452 359.739C77.4929 359.739 76.8281 360.11 76.3509 360.852C75.8774 361.595 75.6387 362.627 75.6349 363.949H75.7202C75.9209 363.619 76.1671 363.339 76.4588 363.108C76.7543 362.873 77.0838 362.693 77.4474 362.568C77.8149 362.439 78.2012 362.375 78.6065 362.375C79.2808 362.375 79.8906 362.54 80.4361 362.869C80.9853 363.195 81.4228 363.646 81.7486 364.222C82.0743 364.797 82.2372 365.456 82.2372 366.199C82.2372 366.941 82.0687 367.614 81.7315 368.216C81.3982 368.818 80.9285 369.295 80.3224 369.648C79.7164 369.996 79.008 370.167 78.1974 370.159ZM78.1918 368.682C78.6387 368.682 79.0384 368.572 79.3906 368.352C79.7429 368.133 80.0213 367.837 80.2259 367.466C80.4304 367.095 80.5327 366.68 80.5327 366.222C80.5327 365.775 80.4323 365.367 80.2315 365C80.0346 364.633 79.7618 364.341 79.4134 364.125C79.0687 363.909 78.6747 363.801 78.2315 363.801C77.8944 363.801 77.5819 363.866 77.294 363.994C77.0099 364.123 76.7599 364.301 76.544 364.528C76.3281 364.756 76.1577 365.017 76.0327 365.312C75.9115 365.604 75.8509 365.913 75.8509 366.239C75.8509 366.674 75.9512 367.078 76.152 367.449C76.3565 367.82 76.6349 368.119 76.9872 368.347C77.3433 368.57 77.7448 368.682 78.1918 368.682Z" fill="white"/>
<path d="M463.983 358.364V370H462.574V359.841H462.506L459.665 361.727V360.295L462.574 358.364H463.983ZM467.33 370V368.977L471.17 364.773C471.621 364.28 471.992 363.852 472.284 363.489C472.576 363.121 472.792 362.777 472.932 362.455C473.076 362.129 473.148 361.788 473.148 361.432C473.148 361.023 473.049 360.669 472.852 360.369C472.659 360.07 472.394 359.839 472.057 359.676C471.72 359.513 471.341 359.432 470.92 359.432C470.473 359.432 470.083 359.525 469.75 359.71C469.42 359.892 469.165 360.148 468.983 360.477C468.805 360.807 468.716 361.193 468.716 361.636H467.375C467.375 360.955 467.532 360.356 467.847 359.841C468.161 359.326 468.589 358.924 469.131 358.636C469.676 358.348 470.288 358.205 470.966 358.205C471.648 358.205 472.252 358.348 472.778 358.636C473.305 358.924 473.718 359.312 474.017 359.801C474.316 360.29 474.466 360.833 474.466 361.432C474.466 361.86 474.388 362.278 474.233 362.688C474.081 363.093 473.816 363.545 473.438 364.045C473.062 364.542 472.542 365.148 471.875 365.864L469.261 368.659V368.75H474.67V370H467.33ZM480.949 370.159C480.199 370.159 479.53 370.03 478.943 369.773C478.36 369.515 477.896 369.157 477.551 368.699C477.21 368.237 477.025 367.701 476.994 367.091H478.426C478.456 367.466 478.585 367.79 478.812 368.062C479.04 368.331 479.337 368.54 479.705 368.688C480.072 368.835 480.479 368.909 480.926 368.909C481.426 368.909 481.869 368.822 482.256 368.648C482.642 368.473 482.945 368.231 483.165 367.92C483.384 367.61 483.494 367.25 483.494 366.841C483.494 366.413 483.388 366.036 483.176 365.71C482.964 365.381 482.653 365.123 482.244 364.938C481.835 364.752 481.335 364.659 480.744 364.659H479.812V363.409H480.744C481.206 363.409 481.612 363.326 481.96 363.159C482.313 362.992 482.587 362.758 482.784 362.455C482.985 362.152 483.085 361.795 483.085 361.386C483.085 360.992 482.998 360.65 482.824 360.358C482.65 360.066 482.403 359.839 482.085 359.676C481.771 359.513 481.4 359.432 480.972 359.432C480.57 359.432 480.191 359.506 479.835 359.653C479.483 359.797 479.195 360.008 478.972 360.284C478.748 360.557 478.627 360.886 478.608 361.273H477.244C477.267 360.663 477.451 360.129 477.795 359.67C478.14 359.208 478.591 358.848 479.148 358.591C479.708 358.333 480.324 358.205 480.994 358.205C481.714 358.205 482.331 358.35 482.847 358.642C483.362 358.93 483.758 359.311 484.034 359.784C484.311 360.258 484.449 360.769 484.449 361.318C484.449 361.973 484.277 362.532 483.932 362.994C483.591 363.456 483.127 363.777 482.54 363.955V364.045C483.275 364.167 483.848 364.479 484.261 364.983C484.674 365.483 484.881 366.102 484.881 366.841C484.881 367.473 484.708 368.042 484.364 368.545C484.023 369.045 483.557 369.439 482.966 369.727C482.375 370.015 481.703 370.159 480.949 370.159Z" fill="white"/>
<path d="M533.947 367.614V366.455L539.061 358.364H539.902V360.159H539.334L535.47 366.273V366.364H542.357V367.614H533.947ZM539.425 370V367.261V366.722V358.364H540.766V370H539.425ZM548.122 370.159C547.455 370.159 546.855 370.027 546.321 369.761C545.787 369.496 545.359 369.133 545.037 368.67C544.715 368.208 544.539 367.682 544.509 367.091H545.872C545.925 367.617 546.164 368.053 546.588 368.398C547.016 368.739 547.527 368.909 548.122 368.909C548.599 368.909 549.024 368.797 549.395 368.574C549.77 368.35 550.063 368.044 550.276 367.653C550.491 367.259 550.599 366.814 550.599 366.318C550.599 365.811 550.488 365.358 550.264 364.96C550.045 364.559 549.741 364.242 549.355 364.011C548.969 363.78 548.527 363.663 548.031 363.659C547.675 363.655 547.31 363.71 546.935 363.824C546.56 363.934 546.251 364.076 546.009 364.25L544.69 364.091L545.395 358.364H551.44V359.614H546.577L546.168 363.045H546.236C546.474 362.856 546.774 362.699 547.134 362.574C547.493 362.449 547.868 362.386 548.259 362.386C548.971 362.386 549.605 362.557 550.162 362.898C550.723 363.235 551.162 363.697 551.48 364.284C551.802 364.871 551.963 365.542 551.963 366.295C551.963 367.038 551.796 367.701 551.463 368.284C551.134 368.864 550.679 369.322 550.099 369.659C549.52 369.992 548.861 370.159 548.122 370.159ZM558.084 370.159C557.607 370.152 557.129 370.061 556.652 369.886C556.175 369.712 555.739 369.419 555.345 369.006C554.951 368.589 554.635 368.027 554.396 367.318C554.158 366.606 554.038 365.712 554.038 364.636C554.038 363.606 554.135 362.693 554.328 361.898C554.521 361.098 554.802 360.426 555.169 359.881C555.536 359.331 555.98 358.915 556.499 358.631C557.021 358.347 557.61 358.205 558.266 358.205C558.917 358.205 559.497 358.335 560.004 358.597C560.516 358.854 560.932 359.214 561.254 359.676C561.576 360.138 561.785 360.67 561.879 361.273H560.493C560.364 360.75 560.114 360.316 559.743 359.972C559.372 359.627 558.879 359.455 558.266 359.455C557.364 359.455 556.654 359.847 556.135 360.631C555.62 361.415 555.36 362.515 555.357 363.932H555.447C555.66 363.61 555.911 363.335 556.203 363.108C556.499 362.877 556.824 362.699 557.18 362.574C557.536 362.449 557.913 362.386 558.311 362.386C558.978 362.386 559.588 362.553 560.141 362.886C560.694 363.216 561.137 363.672 561.47 364.256C561.804 364.835 561.97 365.5 561.97 366.25C561.97 366.97 561.809 367.629 561.487 368.227C561.165 368.822 560.713 369.295 560.129 369.648C559.55 369.996 558.868 370.167 558.084 370.159ZM558.084 368.909C558.561 368.909 558.989 368.79 559.368 368.551C559.75 368.312 560.052 367.992 560.271 367.591C560.495 367.189 560.607 366.742 560.607 366.25C560.607 365.769 560.499 365.331 560.283 364.938C560.071 364.54 559.777 364.223 559.402 363.989C559.031 363.754 558.607 363.636 558.129 363.636C557.769 363.636 557.434 363.708 557.124 363.852C556.813 363.992 556.54 364.186 556.305 364.432C556.074 364.678 555.893 364.96 555.76 365.278C555.627 365.593 555.561 365.924 555.561 366.273C555.561 366.735 555.669 367.167 555.885 367.568C556.105 367.97 556.404 368.294 556.783 368.54C557.165 368.786 557.599 368.909 558.084 368.909Z" fill="white"/>
<mask id="path-36-inside-7_22020_90508" fill="white">
<path d="M36 388H563V436H36V388Z"/>
</mask>
<path d="M36 389H563V387H36V389Z" fill="#384162" mask="url(#path-36-inside-7_22020_90508)"/>
<path d="M37.2784 418V406.364H41.4261C42.3277 406.364 43.0758 406.519 43.6705 406.83C44.2689 407.14 44.7159 407.57 45.0114 408.119C45.3068 408.665 45.4545 409.295 45.4545 410.011C45.4545 410.723 45.3049 411.35 45.0057 411.892C44.7102 412.43 44.2633 412.848 43.6648 413.148C43.0701 413.447 42.322 413.597 41.4205 413.597H38.2784V412.085H41.2614C41.8295 412.085 42.2917 412.004 42.6477 411.841C43.0076 411.678 43.2708 411.441 43.4375 411.131C43.6042 410.82 43.6875 410.447 43.6875 410.011C43.6875 409.572 43.6023 409.191 43.4318 408.869C43.2652 408.547 43.0019 408.301 42.642 408.131C42.286 407.956 41.8182 407.869 41.2386 407.869H39.0341V418H37.2784ZM43.0227 412.75L45.8977 418H43.8977L41.0795 412.75H43.0227ZM51.0213 418.176C50.2031 418.176 49.4891 417.989 48.8793 417.614C48.2694 417.239 47.7959 416.714 47.4588 416.04C47.1217 415.366 46.9531 414.578 46.9531 413.676C46.9531 412.771 47.1217 411.979 47.4588 411.301C47.7959 410.623 48.2694 410.097 48.8793 409.722C49.4891 409.347 50.2031 409.159 51.0213 409.159C51.8395 409.159 52.5535 409.347 53.1634 409.722C53.7732 410.097 54.2467 410.623 54.5838 411.301C54.9209 411.979 55.0895 412.771 55.0895 413.676C55.0895 414.578 54.9209 415.366 54.5838 416.04C54.2467 416.714 53.7732 417.239 53.1634 417.614C52.5535 417.989 51.8395 418.176 51.0213 418.176ZM51.027 416.75C51.5573 416.75 51.9967 416.61 52.3452 416.33C52.6937 416.049 52.9512 415.676 53.1179 415.21C53.2884 414.744 53.3736 414.231 53.3736 413.67C53.3736 413.114 53.2884 412.602 53.1179 412.136C52.9512 411.667 52.6937 411.29 52.3452 411.006C51.9967 410.722 51.5573 410.58 51.027 410.58C50.4929 410.58 50.0497 410.722 49.6974 411.006C49.349 411.29 49.0895 411.667 48.919 412.136C48.7524 412.602 48.669 413.114 48.669 413.67C48.669 414.231 48.7524 414.744 48.919 415.21C49.0895 415.676 49.349 416.049 49.6974 416.33C50.0497 416.61 50.4929 416.75 51.027 416.75ZM58.6122 418L56.044 409.273H57.7997L59.5099 415.682H59.5952L61.3111 409.273H63.0668L64.7713 415.653H64.8565L66.5554 409.273H68.3111L65.7486 418H64.0156L62.2429 411.699H62.1122L60.3395 418H58.6122ZM74.527 418L79.6065 407.955V407.869H73.7315V406.364H81.4247V407.92L76.3622 418H74.527Z" fill="white"/>
<path d="M463.983 406.364V418H462.574V407.841H462.506L459.665 409.727V408.295L462.574 406.364H463.983ZM467.33 418V416.977L471.17 412.773C471.621 412.28 471.992 411.852 472.284 411.489C472.576 411.121 472.792 410.777 472.932 410.455C473.076 410.129 473.148 409.788 473.148 409.432C473.148 409.023 473.049 408.669 472.852 408.369C472.659 408.07 472.394 407.839 472.057 407.676C471.72 407.513 471.341 407.432 470.92 407.432C470.473 407.432 470.083 407.525 469.75 407.71C469.42 407.892 469.165 408.148 468.983 408.477C468.805 408.807 468.716 409.193 468.716 409.636H467.375C467.375 408.955 467.532 408.356 467.847 407.841C468.161 407.326 468.589 406.924 469.131 406.636C469.676 406.348 470.288 406.205 470.966 406.205C471.648 406.205 472.252 406.348 472.778 406.636C473.305 406.924 473.718 407.312 474.017 407.801C474.316 408.29 474.466 408.833 474.466 409.432C474.466 409.86 474.388 410.278 474.233 410.688C474.081 411.093 473.816 411.545 473.438 412.045C473.062 412.542 472.542 413.148 471.875 413.864L469.261 416.659V416.75H474.67V418H467.33ZM480.949 418.159C480.199 418.159 479.53 418.03 478.943 417.773C478.36 417.515 477.896 417.157 477.551 416.699C477.21 416.237 477.025 415.701 476.994 415.091H478.426C478.456 415.466 478.585 415.79 478.812 416.062C479.04 416.331 479.337 416.54 479.705 416.688C480.072 416.835 480.479 416.909 480.926 416.909C481.426 416.909 481.869 416.822 482.256 416.648C482.642 416.473 482.945 416.231 483.165 415.92C483.384 415.61 483.494 415.25 483.494 414.841C483.494 414.413 483.388 414.036 483.176 413.71C482.964 413.381 482.653 413.123 482.244 412.938C481.835 412.752 481.335 412.659 480.744 412.659H479.812V411.409H480.744C481.206 411.409 481.612 411.326 481.96 411.159C482.313 410.992 482.587 410.758 482.784 410.455C482.985 410.152 483.085 409.795 483.085 409.386C483.085 408.992 482.998 408.65 482.824 408.358C482.65 408.066 482.403 407.839 482.085 407.676C481.771 407.513 481.4 407.432 480.972 407.432C480.57 407.432 480.191 407.506 479.835 407.653C479.483 407.797 479.195 408.008 478.972 408.284C478.748 408.557 478.627 408.886 478.608 409.273H477.244C477.267 408.663 477.451 408.129 477.795 407.67C478.14 407.208 478.591 406.848 479.148 406.591C479.708 406.333 480.324 406.205 480.994 406.205C481.714 406.205 482.331 406.35 482.847 406.642C483.362 406.93 483.758 407.311 484.034 407.784C484.311 408.258 484.449 408.769 484.449 409.318C484.449 409.973 484.277 410.532 483.932 410.994C483.591 411.456 483.127 411.777 482.54 411.955V412.045C483.275 412.167 483.848 412.479 484.261 412.983C484.674 413.483 484.881 414.102 484.881 414.841C484.881 415.473 484.708 416.042 484.364 416.545C484.023 417.045 483.557 417.439 482.966 417.727C482.375 418.015 481.703 418.159 480.949 418.159Z" fill="white"/>
<path d="M533.947 415.614V414.455L539.061 406.364H539.902V408.159H539.334L535.47 414.273V414.364H542.357V415.614H533.947ZM539.425 418V415.261V414.722V406.364H540.766V418H539.425ZM548.122 418.159C547.455 418.159 546.855 418.027 546.321 417.761C545.787 417.496 545.359 417.133 545.037 416.67C544.715 416.208 544.539 415.682 544.509 415.091H545.872C545.925 415.617 546.164 416.053 546.588 416.398C547.016 416.739 547.527 416.909 548.122 416.909C548.599 416.909 549.024 416.797 549.395 416.574C549.77 416.35 550.063 416.044 550.276 415.653C550.491 415.259 550.599 414.814 550.599 414.318C550.599 413.811 550.488 413.358 550.264 412.96C550.045 412.559 549.741 412.242 549.355 412.011C548.969 411.78 548.527 411.663 548.031 411.659C547.675 411.655 547.31 411.71 546.935 411.824C546.56 411.934 546.251 412.076 546.009 412.25L544.69 412.091L545.395 406.364H551.44V407.614H546.577L546.168 411.045H546.236C546.474 410.856 546.774 410.699 547.134 410.574C547.493 410.449 547.868 410.386 548.259 410.386C548.971 410.386 549.605 410.557 550.162 410.898C550.723 411.235 551.162 411.697 551.48 412.284C551.802 412.871 551.963 413.542 551.963 414.295C551.963 415.038 551.796 415.701 551.463 416.284C551.134 416.864 550.679 417.322 550.099 417.659C549.52 417.992 548.861 418.159 548.122 418.159ZM558.084 418.159C557.607 418.152 557.129 418.061 556.652 417.886C556.175 417.712 555.739 417.419 555.345 417.006C554.951 416.589 554.635 416.027 554.396 415.318C554.158 414.606 554.038 413.712 554.038 412.636C554.038 411.606 554.135 410.693 554.328 409.898C554.521 409.098 554.802 408.426 555.169 407.881C555.536 407.331 555.98 406.915 556.499 406.631C557.021 406.347 557.61 406.205 558.266 406.205C558.917 406.205 559.497 406.335 560.004 406.597C560.516 406.854 560.932 407.214 561.254 407.676C561.576 408.138 561.785 408.67 561.879 409.273H560.493C560.364 408.75 560.114 408.316 559.743 407.972C559.372 407.627 558.879 407.455 558.266 407.455C557.364 407.455 556.654 407.847 556.135 408.631C555.62 409.415 555.36 410.515 555.357 411.932H555.447C555.66 411.61 555.911 411.335 556.203 411.108C556.499 410.877 556.824 410.699 557.18 410.574C557.536 410.449 557.913 410.386 558.311 410.386C558.978 410.386 559.588 410.553 560.141 410.886C560.694 411.216 561.137 411.672 561.47 412.256C561.804 412.835 561.97 413.5 561.97 414.25C561.97 414.97 561.809 415.629 561.487 416.227C561.165 416.822 560.713 417.295 560.129 417.648C559.55 417.996 558.868 418.167 558.084 418.159ZM558.084 416.909C558.561 416.909 558.989 416.79 559.368 416.551C559.75 416.312 560.052 415.992 560.271 415.591C560.495 415.189 560.607 414.742 560.607 414.25C560.607 413.769 560.499 413.331 560.283 412.938C560.071 412.54 559.777 412.223 559.402 411.989C559.031 411.754 558.607 411.636 558.129 411.636C557.769 411.636 557.434 411.708 557.124 411.852C556.813 411.992 556.54 412.186 556.305 412.432C556.074 412.678 555.893 412.96 555.76 413.278C555.627 413.593 555.561 413.924 555.561 414.273C555.561 414.735 555.669 415.167 555.885 415.568C556.105 415.97 556.404 416.294 556.783 416.54C557.165 416.786 557.599 416.909 558.084 416.909Z" fill="white"/>
<path d="M36.6364 40.1307V38.3636H45.9205V40.1307H42.3239V50H40.233V40.1307H36.6364ZM47.6193 50V41.2727H49.6761V50H47.6193ZM48.6534 40.0341C48.3277 40.0341 48.0473 39.9261 47.8125 39.7102C47.5777 39.4905 47.4602 39.2273 47.4602 38.9205C47.4602 38.6098 47.5777 38.3466 47.8125 38.1307C48.0473 37.911 48.3277 37.8011 48.6534 37.8011C48.983 37.8011 49.2633 37.911 49.4943 38.1307C49.7292 38.3466 49.8466 38.6098 49.8466 38.9205C49.8466 39.2273 49.7292 39.4905 49.4943 39.7102C49.2633 39.9261 48.983 40.0341 48.6534 40.0341ZM56.1491 41.2727V42.8636H51.1321V41.2727H56.1491ZM52.3707 39.1818H54.4276V47.375C54.4276 47.6515 54.4692 47.8636 54.5526 48.0114C54.6397 48.1553 54.7533 48.2538 54.8935 48.3068C55.0336 48.3598 55.1889 48.3864 55.3594 48.3864C55.4882 48.3864 55.6056 48.3769 55.7116 48.358C55.8215 48.339 55.9048 48.322 55.9616 48.3068L56.3082 49.9148C56.1984 49.9527 56.0412 49.9943 55.8366 50.0398C55.6359 50.0852 55.3897 50.1117 55.098 50.1193C54.5829 50.1345 54.1188 50.0568 53.706 49.8864C53.2931 49.7121 52.9654 49.4432 52.723 49.0795C52.4844 48.7159 52.367 48.2614 52.3707 47.7159V39.1818ZM60.1136 38.3636V50H58.0568V38.3636H60.1136ZM66.0923 50.1705C65.2173 50.1705 64.4616 49.9886 63.8253 49.625C63.1927 49.2576 62.706 48.7386 62.3651 48.0682C62.0241 47.3939 61.8537 46.6004 61.8537 45.6875C61.8537 44.7898 62.0241 44.0019 62.3651 43.3239C62.7098 42.642 63.1908 42.1117 63.8082 41.733C64.4257 41.3504 65.151 41.1591 65.9844 41.1591C66.5223 41.1591 67.0298 41.2462 67.5071 41.4205C67.9882 41.5909 68.4124 41.8561 68.7798 42.2159C69.151 42.5758 69.4427 43.0341 69.6548 43.5909C69.867 44.1439 69.973 44.803 69.973 45.5682V46.1989H62.8196V44.8125H68.0014C67.9976 44.4186 67.9124 44.0682 67.7457 43.7614C67.5791 43.4508 67.3461 43.2064 67.0469 43.0284C66.7514 42.8504 66.4067 42.7614 66.0128 42.7614C65.5923 42.7614 65.223 42.8636 64.9048 43.0682C64.5866 43.2689 64.3385 43.5341 64.1605 43.8636C63.9863 44.1894 63.8973 44.5473 63.8935 44.9375V46.1477C63.8935 46.6553 63.9863 47.0909 64.1719 47.4545C64.3575 47.8144 64.617 48.0909 64.9503 48.2841C65.2836 48.4735 65.6738 48.5682 66.1207 48.5682C66.42 48.5682 66.6908 48.5265 66.9332 48.4432C67.1757 48.3561 67.3859 48.2292 67.5639 48.0625C67.742 47.8958 67.8764 47.6894 67.9673 47.4432L69.8878 47.6591C69.7666 48.1667 69.5355 48.6098 69.1946 48.9886C68.8575 49.3636 68.4257 49.6553 67.8991 49.8636C67.3726 50.0682 66.7704 50.1705 66.0923 50.1705Z" fill="white"/>
</g>
<defs>
<filter id="filter0_d_22020_90508" x="0" y="0" width="599" height="472" filterUnits="userSpaceOnUse" color-interpolation-filters="sRGB">
<feFlood flood-opacity="0" result="BackgroundImageFix"/>
<feColorMatrix in="SourceAlpha" type="matrix" values="0 0 0 0 0 0 0 0 0 0 0 0 0 0 0 0 0 0 127 0" result="hardAlpha"/>
<feOffset dy="4"/>
<feGaussianBlur stdDeviation="6"/>
<feComposite in2="hardAlpha" operator="out"/>
<feColorMatrix type="matrix" values="0 0 0 0 0 0 0 0 0 0 0 0 0 0 0 0 0 0 0.04 0"/>
<feBlend mode="normal" in2="BackgroundImageFix" result="effect1_dropShadow_22020_90508"/>
<feBlend mode="normal" in="SourceGraphic" in2="effect1_dropShadow_22020_90508" result="shape"/>
</filter>
</defs>
</svg>
