<svg width="30" height="36" viewBox="0 0 30 36" fill="none" xmlns="http://www.w3.org/2000/svg">
<path d="M26.9235 8.304L21.6975 3.075C19.713 1.092 17.076 0 14.2725 0H7.5C3.3645 0 0 3.3645 0 7.5V28.5C0 32.6355 3.3645 36 7.5 36H22.5C26.6355 36 30 32.6355 30 28.5V15.7275C30 12.921 28.9065 10.287 26.9235 8.304ZM24.8025 10.4265C25.2795 10.902 25.683 11.4315 26.01 12.0015H19.4985C18.6705 12.0015 17.9985 11.328 17.9985 10.5015V3.9885C18.5685 4.3155 19.098 4.719 19.575 5.196L24.801 10.425L24.8025 10.4265ZM27 28.5015C27 30.9825 24.981 33.0015 22.5 33.0015H7.5C5.019 33.0015 3 30.9825 3 28.5015V7.5C3 5.019 5.019 3 7.5 3H14.2725C14.517 3 14.76 3.012 15 3.0345V10.5C15 12.981 17.019 15 19.5 15H26.9655C26.988 15.24 27 15.483 27 15.7275V28.5015ZM20.5605 24.159C21.147 24.744 21.147 25.6935 20.5605 26.28L18.141 28.701C17.2755 29.5665 16.137 30 15 30C13.863 30 12.7245 29.5665 11.859 28.701L9.4395 26.28C8.853 25.6935 8.853 24.744 9.4395 24.159C10.026 23.5725 10.974 23.5725 11.5605 24.159L13.5 26.0985V19.5015C13.5 18.6735 14.1705 18.0015 15 18.0015C15.8295 18.0015 16.5 18.6735 16.5 19.5015V26.0985L18.4395 24.159C19.026 23.5725 19.974 23.5725 20.5605 24.159Z" fill="white"/>
</svg>
